PathFileType  4	(X/Y/Z) C:\Users\hpl\Documents\MyRepositories\mocap-processing\Data\treadmill\running\
DataRate	CameraRate	NumFrames	NumMarkers	Units	OrigDataRate	OrigDataStartFrame	OrigNumFrames
  200.0		  200.0		    6		     46		 mm	  200.0	      393	    785
Frame#	Time	r_knee			r_shank_antsup			r_ankle			r_calc			r_5meta			r_toe			L_knee			L_shank_antsup			L_ankle			L_calc			L_5meta			L_toe			r_sh2			r_sh3			r_sh4			L_sh2			L_sh3			r_thigh1			r_thigh2			r_thigh3			r_thigh4			r_thigh5			L_thigh1			L_thigh2			L_thigh3			L_thigh4			r.ASIS			r.PSIS			L.ASIS			L.PSIS			C7			R_Shoulder			L_Shoulder			Sternum			R_humerus			R_elbow_med			R_elbow_lat			R_forearm			R_wrist_radius			R_wrist_ulna			L_humerus			L_elbow_med			L_elbow_lat			L_forearm			L_wrist_radius			L_wrist_ulna			
		X1	Y1	Z1	X2	Y2	Z2	X3	Y3	Z3	X4	Y4	Z4	X5	Y5	Z5	X6	Y6	Z6	X7	Y7	Z7	X8	Y8	Z8	X9	Y9	Z9	X10	Y10	Z10	X11	Y11	Z11	X12	Y12	Z12	X13	Y13	Z13	X14	Y14	Z14	X15	Y15	Z15	X16	Y16	Z16	X17	Y17	Z17	X18	Y18	Z18	X19	Y19	Z19	X20	Y20	Z20	X21	Y21	Z21	X22	Y22	Z22	X23	Y23	Z23	X24	Y24	Z24	X25	Y25	Z25	X26	Y26	Z26	X27	Y27	Z27	X28	Y28	Z28	X29	Y29	Z29	X30	Y30	Z30	X31	Y31	Z31	X32	Y32	Z32	X33	Y33	Z33	X34	Y34	Z34	X35	Y35	Z35	X36	Y36	Z36	X37	Y37	Z37	X38	Y38	Z38	X39	Y39	Z39	X40	Y40	Z40	X41	Y41	Z41	X42	Y42	Z42	X43	Y43	Z43	X44	Y44	Z44	X45	Y45	Z45	X46	Y46	Z46	

393	1.96000	660.480	499.842	-127.266	612.625	384.002	-129.999	370.216	167.559	-193.637	295.405	185.159	-262.608	417.223	39.790	-165.784	468.140	47.953	-224.289	1003.005	588.160	-445.898	932.896	491.747	-442.143	650.538	353.202	-393.620	593.515	380.638	-340.545	694.564	195.698	-415.530	731.972	180.445	-348.373	530.576	298.753	-149.427	557.257	430.423	-111.747	472.759	357.535	-142.153	885.334	567.651	-453.259	787.657	496.477	-434.566	796.692	694.988	-96.853	759.235	588.268	-112.681	709.373	566.884	-108.426	686.987	719.393	-77.605	658.818	608.773	-108.025	965.352	816.248	-439.073	1037.824	697.130	-425.947	873.602	759.462	-488.277	945.937	643.393	-457.295	843.874	977.920	-135.184	642.986	1057.136	-212.713	835.022	992.626	-410.042	637.822	1055.458	-319.403	774.371	1536.881	-257.463	836.677	1494.285	-70.428	791.900	1520.548	-446.362	921.791	1420.416	-282.733	787.865	1271.121	10.201	669.794	1158.906	-21.879	689.645	1190.258	64.120	858.365	1154.594	7.825	955.625	1127.570	-39.894	947.222	1085.172	-10.726	646.091	1339.682	-541.277	510.259	1278.938	-485.966	545.164	1315.091	-569.068	658.794	1191.081	-556.334	752.286	1149.237	-499.182	710.305	1098.641	-532.631
394	1.96500	648.130	506.032	-126.369	598.206	391.001	-127.699	355.737	173.470	-191.028	283.252	193.919	-260.369	396.245	41.319	-165.169	446.573	47.864	-224.532	1006.830	593.798	-445.634	941.575	492.534	-441.892	668.264	337.359	-392.129	610.044	361.215	-338.683	722.380	183.044	-413.532	760.934	170.672	-346.400	515.811	306.160	-146.756	543.178	437.977	-110.973	458.585	365.408	-141.563	889.682	565.567	-452.416	796.548	487.976	-433.661	791.222	697.017	-97.975	750.526	591.967	-111.412	700.574	570.737	-108.728	682.522	724.285	-77.298	650.836	614.721	-107.641	968.259	822.721	-439.687	1041.225	704.196	-425.913	876.808	764.955	-488.674	949.773	649.492	-457.576	846.028	980.242	-136.143	645.284	1060.172	-212.083	836.862	997.526	-409.759	639.731	1059.336	-318.126	774.186	1540.524	-257.509	838.693	1498.385	-71.925	789.151	1525.058	-445.839	921.624	1425.147	-284.602	791.716	1275.670	10.358	673.381	1163.033	-20.729	694.158	1194.271	65.097	862.660	1162.670	6.971	959.573	1137.780	-41.089	952.741	1095.372	-12.897	642.145	1345.970	-540.754	506.040	1286.201	-484.607	540.611	1322.299	-567.867	654.320	1199.051	-556.215	748.473	1157.025	-500.130	706.043	1106.457	-533.293
395	1.97000	636.084	512.650	-125.519	584.567	398.576	-125.418	342.395	179.099	-188.106	272.078	202.750	-258.215	375.505	43.037	-164.467	425.601	48.417	-223.858	1009.869	598.634	-445.374	950.531	492.775	-441.543	686.797	321.845	-390.622	626.885	342.346	-338.229	750.814	170.940	-411.608	790.099	161.407	-344.661	501.808	313.899	-144.065	529.081	446.435	-109.644	445.138	373.530	-140.817	893.929	562.752	-451.821	806.067	479.110	-432.206	786.082	699.479	-98.734	742.408	596.016	-111.437	692.221	575.036	-109.166	678.240	729.469	-76.866	643.390	620.673	-106.285	971.182	828.883	-440.150	1044.271	710.386	-425.610	880.017	770.152	-489.056	953.428	655.208	-457.846	848.248	982.469	-136.589	647.712	1062.762	-211.255	838.846	1002.467	-409.669	641.804	1062.829	-317.611	773.907	1544.242	-256.061	839.731	1502.624	-72.915	786.707	1529.357	-445.218	921.638	1429.978	-286.302	795.382	1280.074	10.313	676.704	1167.198	-19.581	698.533	1198.411	66.454	866.576	1170.797	6.045	963.694	1148.123	-43.922	957.868	1105.565	-14.937	638.361	1352.121	-540.406	502.144	1293.293	-482.972	536.246	1329.437	-566.756	650.149	1206.912	-555.984	744.451	1164.533	-500.790	702.095	1114.188	-533.868
396	1.97500	624.856	519.522	-124.782	571.298	406.711	-123.556	330.006	184.658	-184.946	261.848	212.151	-255.696	355.268	45.133	-163.742	405.198	49.386	-223.130	1012.504	602.880	-445.146	958.694	492.622	-441.372	705.205	307.086	-389.919	645.732	322.761	-334.909	778.674	159.630	-409.791	819.270	152.836	-342.753	488.570	321.984	-141.289	515.985	454.983	-109.068	432.333	381.716	-140.542	898.274	558.786	-450.787	815.305	470.268	-431.136	780.862	701.925	-99.963	734.930	600.296	-113.315	684.057	579.631	-109.484	674.257	734.736	-76.631	636.122	626.805	-105.529	973.859	834.300	-440.678	1047.191	716.051	-425.522	882.759	775.001	-489.435	956.314	660.263	-457.874	850.542	985.105	-138.202	650.091	1066.008	-211.538	840.849	1007.116	-409.476	644.020	1066.032	-316.979	773.488	1547.571	-256.012	840.890	1506.830	-74.026	784.401	1533.490	-444.555	921.754	1434.547	-288.043	798.905	1284.532	10.339	679.911	1171.350	-18.608	702.277	1202.768	67.757	870.148	1178.935	5.156	967.149	1158.487	-45.756	962.529	1115.561	-17.057	634.853	1358.286	-539.963	498.463	1300.174	-481.294	532.118	1336.445	-565.433	646.084	1214.576	-555.822	740.702	1171.966	-501.377	698.435	1121.629	-534.372
397	1.98000	613.951	526.510	-124.930	558.756	415.508	-122.037	318.710	189.903	-181.408	252.732	221.812	-252.769	335.321	47.858	-162.882	385.498	50.882	-222.079	1014.270	606.114	-446.117	966.684	492.150	-441.189	725.577	290.695	-388.930	664.855	303.867	-333.436	807.152	148.434	-407.912	848.366	144.903	-340.899	476.193	330.500	-138.618	503.342	463.899	-108.902	419.634	390.806	-140.812	902.270	554.412	-450.960	824.982	461.671	-430.738	775.898	704.765	-100.784	727.839	605.020	-115.717	676.127	583.970	-112.255	670.344	740.086	-76.291	629.266	633.467	-104.967	976.497	839.195	-441.388	1049.749	720.740	-425.605	885.432	779.312	-489.631	958.688	664.777	-457.694	853.006	987.760	-139.252	652.661	1068.738	-210.527	842.626	1011.492	-409.563	646.683	1068.896	-316.622	773.495	1551.112	-256.088	841.603	1510.966	-75.130	782.338	1537.515	-443.951	919.404	1438.291	-289.829	802.335	1288.922	10.313	683.948	1174.604	-15.565	706.226	1207.055	69.072	873.343	1186.929	4.264	970.221	1168.611	-47.562	966.757	1125.393	-19.044	631.440	1364.392	-539.618	494.757	1307.036	-479.975	528.232	1343.279	-564.117	642.136	1221.901	-555.589	737.386	1179.366	-502.081	694.948	1129.060	-534.774
398	1.98500	603.869	533.986	-124.593	546.677	424.715	-121.164	308.347	195.577	-177.669	244.467	231.990	-248.899	315.912	51.930	-162.007	366.248	52.928	-221.434	1015.847	608.628	-445.261	974.398	491.531	-441.110	745.959	275.197	-387.818	684.794	285.313	-332.098	835.791	138.032	-406.277	877.805	137.926	-339.316	464.711	339.160	-135.979	491.266	473.256	-109.009	408.181	399.393	-140.600	905.973	550.233	-451.867	836.001	451.685	-429.889	771.214	707.775	-101.705	720.363	609.579	-116.591	668.631	589.233	-113.351	666.879	745.617	-76.115	622.823	640.146	-104.897	979.142	843.340	-442.073	1051.594	724.381	-425.901	887.278	783.139	-489.692	960.241	668.251	-457.449	855.409	990.338	-140.197	655.038	1071.856	-210.539	844.470	1015.405	-409.806	648.655	1072.145	-316.305	772.952	1553.774	-255.573	842.327	1514.941	-76.293	780.739	1541.087	-443.171	918.939	1442.506	-291.306	805.561	1293.218	10.209	686.879	1178.378	-14.316	710.027	1210.827	70.101	876.234	1194.698	3.411	972.908	1178.458	-49.388	970.660	1135.148	-20.830	628.150	1370.433	-539.151	491.564	1313.715	-478.248	524.565	1350.003	-562.643	638.408	1229.004	-555.348	734.070	1186.470	-502.681	691.504	1136.270	-535.260
